<?xml version="1.0" encoding="UTF-8"?>
<svg id="Layer_2" data-name="Layer 2" xmlns="http://www.w3.org/2000/svg" viewBox="0 0 322.8 322.8">
  <defs>
    <style>
      .cls-1 {
        fill: none;
      }

      .cls-1, .cls-2 {
        stroke-width: 0px;
      }

      .cls-2 {
        fill: #ee7f00;
      }
    </style>
  </defs>
  <g id="Logo">
    <circle class="cls-1" cx="161.4" cy="161.4" r="161.4"/>
    <g>
      <path class="cls-2" d="m55.6,163.1c26.7-.8,56.7-5.5,63.8-24.4.7-8.2-9.1-14.9-19.2-19.5-12.7-4-28.9-3.2-40-.2-5-1.9-10.4-5.4-13.4-8.7,21.1-10.3,46.8-19,77.9-10.9,13,2.8,24.5,8.6,36,14.4,12.7-6.7,20.9-16.6,26.5-26.3,7.3-13.9-3.1-29.7-20.5-40.7-14-10.8-31.8-16.1-51.2-14.4l-15,1.8-7.7-9.4c22.3-12.4,59.2-13.3,88.8-3.8,20.4,6.7,40.2,19.6,55,31.9,8.4-5.5,17-11.7,26.3-17.2C235,13.4,199.8,0,161.4,0,72.3,0,0,72.3,0,161.4v.5c18.8.7,37.9,1.9,55.6,1.2Z"/>
      <path class="cls-2" d="m8.7,177c-2.6-.7-5.3-1.3-8.1-1.8,7,82.7,76.3,147.6,160.8,147.6,14.2,0,28-1.9,41.2-5.3-38-54.2-106-115.5-193.9-140.5Z"/>
      <path class="cls-2" d="m302.4,240c-44.1-15-93.1-23.4-141.8-28.7,0,0,37.6,27.1,98.6,78.5,17.6-13.4,32.3-30.4,43.2-49.8Z"/>
      <path class="cls-2" d="m207.9,194.1c51.4-6.3,96.4-38.1,113.5-53.8-2.9-22-10.2-42.6-21-60.9-87.1,85.6-160.8,98.1-212.7,102.5,0,0,63.2,19.2,120.2,12.2Z"/>
    </g>
  </g>
</svg>